<svg xmlns="http://www.w3.org/2000/svg" width="24" height="24" fill="none"><path fill="#000" fill-rule="evenodd" d="M12.4 4c-.1 0-.4.3-.4 1 0 1.5 0 3-1.1 5.2A9.4 9.4 0 0 1 8 13.5V20h9.2a2599 2599 0 0 0 1.5-6l.3-1a1 1 0 0 0-1-1h-4a1 1 0 0 1-1-1.3c1.5-4 .6-6 0-6.5-.3-.3-.6-.2-.6-.2m8.6 9.3-.3 1.1-.6 2.5-1.1 4.4a1 1 0 0 1-1 .7H7a1 1 0 0 1-1-1v-8a1 1 0 0 1 .5-.8l.2-.2.8-.6c.5-.5 1.2-1.2 1.6-2 .9-1.8.9-3 .9-4.3s.5-2.3 1.4-2.8c1-.5 2-.3 2.9.4 1.4 1.2 2 3.8 1 7.3H18a3 3 0 0 1 3 3zM4 12a1 1 0 0 1 1 1v8a1 1 0 0 1-2 0v-8a1 1 0 0 1 1-1" clip-rule="evenodd"/></svg>