<svg xmlns="http://www.w3.org/2000/svg" width="24" height="24" fill="none"><path fill="#000" fill-rule="evenodd" d="M19.3 3A6.3 6.3 0 0 1 22 5.3a6.3 6.3 0 0 1 1 3.5 11 11 0 0 1-.1 1.7 7 7 0 0 1-.8 2l-.1.2a1 1 0 0 1-.1.2 14 14 0 0 1-2.4 2.8l-6.9 5.6a1 1 0 0 1-1.2 0l-6.9-5.6a14 14 0 0 1-2.4-2.8 1.2 1.2 0 0 0-.1-.2 7 7 0 0 1-.9-2.3L1 8.8a6.3 6.3 0 0 1 1-3.5A6.3 6.3 0 0 1 4.7 3c2.5-1.1 4.6 0 6 1L12 5.5l1.3-1.3c1.4-1.2 3.5-2.3 6-1.1ZM11 7.6a9 9 0 0 0-.4-.6 8.8 8.8 0 0 0-1.3-1.4c-1.1-1-2.4-1.5-3.8-.8a4.3 4.3 0 0 0-2 1.6A4.3 4.3 0 0 0 3 8.8l.1 1.3a5 5 0 0 0 .6 1.6v.1a12 12 0 0 0 2.1 2.3l6.2 5.1 6.2-5a12 12 0 0 0 2-2.3 1.2 1.2 0 0 1 .1-.3 4.9 4.9 0 0 0 .7-2.8 4.3 4.3 0 0 0-.7-2.4 4.3 4.3 0 0 0-1.9-1.6c-1.4-.7-2.7-.1-3.8.8A8.8 8.8 0 0 0 13.3 7a9 9 0 0 0-.4.6 1 1 0 0 1-1.8 0Zm12.1 1.2h-1z" clip-rule="evenodd"/></svg>