<svg xmlns="http://www.w3.org/2000/svg" width="65" height="18" viewBox="0 0 65 18" fill="none">
    <g clip-path="url(#clip0_363_5877)">
        <path d="M62.9685 9.2957C62.6498 8.80809 62.2406 8.40408 61.8017 8.06624C61.9498 7.9931 62.0995 7.89209 62.2441 7.75278C62.918 7.11192 63.2576 6.03397 62.662 5.34261C61.0163 3.42876 58.244 3.18321 56.6209 4.05045C55.9452 4.41093 55.4228 4.85152 55.0449 5.37396C54.815 4.84456 54.3187 4.50323 53.6779 4.47537C53.4376 4.46318 53.0161 4.48756 52.7044 4.51542C51.9277 4.58334 51.3687 5.15279 51.2782 5.95212C51.1458 5.69787 50.9421 5.48541 50.6721 5.34261C50.4614 5.2329 50.1288 5.10751 49.683 4.94382C49.6865 4.94382 49.2842 4.79579 49.2842 4.79579C49.2894 4.79754 49.2947 4.79928 49.2981 4.80102C48.4448 4.46666 47.6699 4.71395 47.1683 5.48193C46.9385 5.8337 46.5414 6.51635 46.2036 7.47763C46.3324 5.72225 46.3568 4.43706 46.3586 4.3169C46.3586 4.33083 46.3586 4.34476 46.3586 4.35869C46.4369 3.1153 45.9911 2.36299 44.8191 1.75871C40.9496 -0.235252 37.3083 -0.26834 35.1889 0.367289C32.986 1.0273 31.3403 2.84363 30.9676 5.01173C29.1304 3.96512 27.4395 4.07483 26.2762 4.63036C26.2936 4.37959 26.2553 4.09922 26.0724 3.83626C25.7259 3.34168 25.1233 3.31034 24.8969 3.29815C24.2195 3.26332 23.617 3.26158 23.3192 3.26506C23.2826 3.26506 23.2339 3.26332 23.1834 3.25984C22.8577 3.24416 22.095 3.20759 21.6544 3.98776C21.6509 3.99473 21.6474 4.00169 21.6439 4.00692C21.2939 4.66693 20.8881 5.40704 20.5869 5.93644L19.0892 3.98428C19.0805 3.97209 19.0683 3.95642 19.0579 3.94597L19.0404 3.92507C18.6103 3.41483 18.0722 3.31034 17.3495 3.59768C16.8462 3.79794 16.127 4.10966 15.6481 4.35173C15.4531 4.45099 14.9933 4.6826 14.8575 5.21374C14.8244 5.34087 14.8174 5.46451 14.8261 5.58293C14.3943 5.38092 13.9293 5.23986 13.4347 5.17021C12.6528 5.05875 11.8796 5.13189 11.1691 5.36177C11.1743 4.98387 10.995 3.90591 10.8225 3.55762C10.8191 3.5524 10.8104 3.5315 10.8034 3.51583C10.4812 2.77746 9.88739 2.47793 9.03756 2.62247C6.08755 3.124 5.02875 3.18147 1.7792 3.20933C0.60895 3.21978 0.316387 3.939 0.244987 4.24724C0.137018 4.70872 0.1405 6.76189 0.208417 7.20944C0.393011 8.44065 1.52495 8.41627 1.89588 8.4093C2.44966 8.39711 2.83975 8.37447 3.15147 8.35532C3.20197 8.35183 3.25073 8.35009 3.29775 8.34661C3.36218 9.36362 3.64952 11.6571 4.18415 13.874L4.18937 13.8966C4.53244 15.3385 5.68702 15.2062 6.03182 15.1313C6.44106 15.0425 7.86905 14.6419 8.40194 14.4347C8.89999 14.2414 9.20823 13.8026 9.22738 13.2592C9.22738 13.2174 9.22738 13.1739 9.22738 13.1321C9.5182 13.4299 9.85082 13.6894 10.2252 13.9036C11.3241 14.534 12.719 14.7151 13.8649 14.3755C14.6433 14.1439 15.3016 13.82 15.8414 13.4038C15.9389 13.6058 16.0713 13.7782 16.1845 13.914C16.4074 14.1805 17.5829 15.5179 18.7583 15.6833C19.1728 15.7425 19.394 15.6659 19.6587 15.5527L19.6848 15.5405C20.5468 15.1731 21.7623 13.6807 23.3 11.1051C23.3645 10.9971 23.4289 10.8874 23.4933 10.7777C23.4167 10.9762 23.3662 11.1765 23.3436 11.3576C23.2582 12.0594 23.61 12.4651 23.8817 12.7072L23.974 12.7908C24.5783 13.3411 25.8338 14.4852 28.1604 14.5897C28.3764 14.5984 29.1409 14.6071 29.9733 14.3128C29.9628 14.8701 30.3146 15.2863 30.4365 15.4291C30.4417 15.4343 30.4469 15.4413 30.4504 15.4465C30.5897 15.6015 31.8349 16.9772 32.8885 17.4405C34.2851 18.0534 34.9329 17.9455 36.0353 16.9128C36.5438 16.4356 37.4685 15.2741 38.6074 13.4003C38.5499 13.9802 38.4663 14.8074 38.4385 15.0233C38.3514 15.6764 38.3044 16.3573 38.7537 16.8745C39.1664 17.3499 39.7759 17.4109 40.1991 17.4143C40.2182 17.4143 40.2374 17.4143 40.2565 17.4143C40.3384 17.4091 42.2679 17.3029 42.9784 17.2036C44.2009 17.0364 44.5161 16.6411 44.7965 15.7565L44.8609 15.558C45.2336 14.4365 45.514 13.1164 45.7247 11.7807C45.9667 12.756 46.5588 13.5849 47.4208 14.1073C48.7409 14.9084 50.4248 14.8579 51.9242 13.9697C52.5738 13.5849 53.0962 13.0851 53.5142 12.5226C53.5577 12.5923 53.5995 12.655 53.6396 12.7124L53.6744 12.7629C54.1777 13.5013 55.8024 14.9519 58.345 15.1417C59.2401 15.2097 60.924 15.1539 62.1239 14.0377C62.4287 13.7538 63.1653 12.9667 63.4056 11.7912C63.5902 10.8926 63.4352 10.0045 62.9702 9.29222L62.9685 9.2957Z" fill="white"></path>
        <path d="M44.4084 2.55164C40.9638 0.775358 37.5592 0.587282 35.4434 1.22117C31.5304 2.39316 30.3183 7.36674 33.9423 9.80303C34.1617 9.95105 34.0241 10.261 33.749 10.7556C33.4094 11.3721 32.779 12.5841 31.6644 13.4583C30.994 13.986 30.5586 14.2037 31.1107 14.855C31.1107 14.855 32.3366 16.2272 33.2422 16.626C34.3341 17.1049 34.6075 17.0248 35.419 16.2638C35.9293 15.7849 36.9428 14.4788 38.1635 12.396C38.7974 11.3146 39.6438 11.2937 39.5306 13.0752C39.5306 13.0752 39.3634 14.7888 39.3164 15.1441C39.1805 16.1645 39.2868 16.5181 40.2028 16.5285C40.2028 16.5285 42.1689 16.4205 42.8498 16.3248C43.8111 16.1941 43.7571 16.0392 44.0096 15.2816C45.3522 11.2397 45.4654 4.30353 45.4654 4.30353C45.5246 3.3736 45.2303 2.97655 44.4066 2.55338M41.8937 6.29053C41.8937 6.29053 40.6747 7.12642 40.6434 7.14906C40.5389 7.22917 40.3978 7.32495 40.3769 7.71155C40.3699 7.87351 40.3229 9.01241 40.3194 9.15695C40.316 9.31368 40.248 9.74382 39.7517 9.30672C39.7517 9.30672 38.9211 8.57879 38.7974 8.47082C38.7696 8.44644 38.484 8.12253 38.0399 8.31409L36.739 8.83479C36.739 8.83479 35.9554 9.15347 36.2462 8.45167C36.5283 7.76728 36.7199 7.19956 36.7826 7.01671C36.847 6.82515 36.8244 6.55523 36.6659 6.36715C36.5927 6.28182 35.9693 5.45637 35.8265 5.25088C35.8265 5.25088 35.3128 4.64138 36.1678 4.68143C36.1678 4.68143 37.6289 4.71452 37.6515 4.71626C37.6759 4.718 37.9493 4.73716 38.1444 4.43066C38.3847 4.05277 39.09 3.16811 38.9437 3.35619C39.0673 3.19946 39.3529 2.81285 39.5428 3.45371C39.5428 3.45371 39.8127 4.29657 39.9398 4.65182C40.0269 4.89389 40.0809 5.0541 40.5162 5.19341L41.8589 5.67928C41.8589 5.67928 42.4858 5.87258 41.8937 6.29053Z" fill="#0F4DBC"></path>
        <path d="M16.1281 7.92772C15.5029 6.88982 14.4998 6.22284 13.3052 6.05392C11.7797 5.83798 10.3029 6.46142 9.45136 7.67869C8.82618 8.5738 8.62591 9.65001 8.88713 10.7123C9.51579 13.2722 12.0322 13.9897 13.6047 13.523C15.381 12.9953 16.3754 11.9574 16.6453 10.3483C16.7742 9.57339 16.5861 8.69048 16.1263 7.92946M11.8023 11.3897C11.3043 11.2225 10.9351 10.4319 11.1144 9.56991C11.2938 8.70963 11.8981 8.11231 12.4606 8.29168C12.9586 8.4519 13.3278 9.29128 13.1537 10.155C12.9691 11.071 12.3718 11.583 11.8023 11.3897Z" fill="#FF6E00"></path>
        <path d="M47.9183 5.96967C47.7738 6.19083 46.6384 7.91486 46.4973 10.5653C46.4346 11.7426 46.9518 12.784 47.8835 13.3482C48.9179 13.9751 50.2588 13.9229 51.4691 13.2054C54.0726 11.6642 54.3652 7.78251 54.292 6.03236C54.2764 5.6266 54.0378 5.38454 53.639 5.36712C53.4857 5.36016 53.1566 5.37235 52.7822 5.40544C52.4043 5.43852 52.1779 5.70148 52.1588 6.12814V6.24307C52.1396 7.87133 52.0281 9.31151 51.3211 10.2031C50.8579 10.7883 50.3058 11.0216 49.9401 10.8701C49.6145 10.736 49.4073 10.2989 49.4578 9.8531C49.5831 8.74205 50.0516 7.8661 50.3424 7.3071L50.4643 7.06678C50.642 6.69063 50.5531 6.29009 50.2553 6.13336C50.0829 6.04281 49.7068 5.90523 49.3742 5.78333L48.9736 5.63357C48.688 5.52211 48.2666 5.43504 47.9183 5.97141V5.96967Z" fill="#69BE28"></path>
        <path d="M57.0409 4.83841C55.9107 5.44269 55.3308 6.26814 55.2106 7.43491C55.0487 9.01266 57.1942 10.1115 57.7044 10.3902C58.3174 10.7245 58.34 11.1094 58.1816 11.3392C57.9308 11.6997 57.2342 11.5987 56.7205 11.3932C56.1563 11.1668 55.8724 10.9004 55.4074 10.3605C55.1358 10.0453 54.3086 10.9492 54.178 11.5813C54.1188 11.8704 54.232 12.0062 54.4078 12.2622C54.8589 12.924 56.3078 14.0977 58.4079 14.2544C58.9879 14.298 60.4959 14.3328 61.5129 13.3872C61.9257 13.0041 62.3732 12.3684 62.5282 11.6161C62.6344 11.0937 62.6275 10.4093 62.22 9.78413C61.6488 8.90818 60.6945 8.32653 59.6357 7.82848C58.0927 7.10229 58.3905 6.67216 58.7353 6.47189C59.0593 6.28556 60.1581 6.41616 61.0184 7.23465C61.4555 7.64911 62.3593 6.36218 61.9831 5.92508C60.6074 4.32642 58.2721 4.1784 57.0392 4.83841H57.0409Z" fill="#F01450"></path>
        <path d="M25.2985 4.94784C24.4382 7.73416 20.7655 14.1113 19.3323 14.7209C19.1303 14.8079 19.0885 14.8306 18.8778 14.801C18.1168 14.693 17.1677 13.7056 16.8629 13.3416C16.7271 13.1797 16.4345 12.8087 16.6696 12.6137C17.5647 11.8718 18.6775 10.7434 18.7298 10.0834C18.7419 9.9371 18.6984 9.78733 18.6462 9.71593C18.5626 9.59925 16.236 6.42459 16.0009 6.08501C15.6039 5.50685 15.6056 5.37102 16.0444 5.14811C16.4833 4.9252 17.1816 4.62393 17.671 4.42715C18.162 4.23211 18.2352 4.36794 18.3745 4.5299L20.4608 7.24656C20.6105 7.35278 20.7481 7.32318 20.8578 7.18909C21.1225 6.86518 22.251 4.75977 22.4269 4.42541C22.6341 4.05796 22.9772 4.15723 23.322 4.15548C23.6877 4.152 24.2536 4.15722 24.8475 4.18857C25.4169 4.21818 25.4709 4.38361 25.2968 4.9461L25.2985 4.94784Z" fill="#69BE28"></path>
        <path d="M26.3429 5.61123C25.4043 6.21552 24.9567 6.97479 24.9341 7.99876C24.9045 9.38147 26.7539 10.2975 27.2171 10.503C27.7744 10.7502 27.8527 11.048 27.7535 11.2727C27.6072 11.6036 27.2746 11.6645 26.8845 11.5809C26.1775 11.4312 25.6272 10.7903 25.0699 10.4699C24.7547 10.2888 24.2915 10.9105 24.2236 11.4677C24.1922 11.7237 24.2688 11.863 24.4709 12.0441C24.9915 12.5109 26.0643 13.6045 28.1941 13.7003C28.7008 13.7229 30.0156 13.6219 30.8324 12.7268C31.1632 12.3646 31.5098 11.8839 31.5916 11.217C31.6474 10.7555 31.5446 10.1947 31.1946 9.64617C30.9003 9.18817 30.3674 8.73017 29.427 8.32964C27.905 7.68008 28.3856 7.02703 28.7479 6.90339C29.0561 6.7989 29.5977 6.87901 30.498 7.4415C30.9856 7.74625 31.6334 6.55162 31.2294 6.2486C29.2093 4.74225 27.3651 4.94774 26.3394 5.60775L26.3429 5.61123Z" fill="#F01450"></path>
        <path d="M1.78165 4.1014C5.08518 4.07354 6.20319 4.00911 9.18281 3.50234C9.85327 3.38741 9.909 3.73222 10.0187 3.95338C10.111 4.13797 10.2851 5.10274 10.273 5.35176C10.2608 5.59905 10.3792 5.95605 9.97691 6.07272C8.72133 6.43494 8.39394 6.54814 7.55978 6.80587C7.17492 6.92429 7.1993 7.08973 7.20975 7.39622C7.26896 9.08717 7.81229 11.318 8.19715 12.5683C8.35911 13.0942 8.43225 13.4704 8.07699 13.6062C7.58416 13.796 6.20668 14.1827 5.83923 14.2628C5.20012 14.4003 5.10782 13.9162 5.04687 13.6672C4.50528 11.4207 4.23536 9.13071 4.18311 8.27566C4.15699 7.84029 4.01942 7.43279 3.62237 7.4415C3.21487 7.45195 2.75861 7.50071 1.87395 7.51987C1.40028 7.53032 1.14951 7.50071 1.08682 7.07928C1.02238 6.65959 1.0398 4.74922 1.1112 4.45143C1.18085 4.1519 1.51695 4.10663 1.7834 4.10314L1.78165 4.1014Z" fill="#F01450"></path>
        <path d="M63.5777 4.1377C63.8999 4.1377 64.1542 4.39717 64.1542 4.72456C64.1542 5.05196 63.8999 5.31143 63.5777 5.31143C63.2556 5.31143 62.9961 5.0537 62.9961 4.72456C62.9961 4.39543 63.2556 4.1377 63.5777 4.1377ZM63.5777 4.22999C63.32 4.22999 63.1075 4.45116 63.1075 4.72456C63.1075 4.99797 63.32 5.22088 63.5777 5.22088C63.839 5.22436 64.0462 5.0032 64.0462 4.7263C64.0462 4.44941 63.839 4.22999 63.5777 4.22999ZM63.4663 5.06415H63.3653V4.4111C63.4193 4.4024 63.468 4.39369 63.5481 4.39369C63.6491 4.39369 63.7136 4.41633 63.7536 4.44593C63.7919 4.47205 63.8146 4.51733 63.8146 4.58002C63.8146 4.6671 63.7571 4.71934 63.684 4.74024V4.74372C63.7414 4.75417 63.7815 4.80815 63.7937 4.90219C63.8094 5.00494 63.8233 5.04499 63.8337 5.0624H63.724C63.7101 5.04325 63.6944 4.9823 63.6822 4.89697C63.6683 4.81512 63.623 4.78203 63.5394 4.78203H63.4663V5.0624V5.06415ZM63.4663 4.70367H63.5394C63.6282 4.70367 63.7031 4.67058 63.7031 4.59221C63.7031 4.53475 63.6596 4.47728 63.5394 4.47728C63.5081 4.47728 63.4854 4.47902 63.4663 4.4825V4.70367Z" fill="#0F4DBC"></path>
    </g>
    <defs>
        <clipPath id="clip0_363_5877">
            <rect width="64" height="17.8202" fill="white" transform="translate(0.154297)"></rect>
        </clipPath>
    </defs>
</svg>
