<svg xmlns="http://www.w3.org/2000/svg" width="28" height="28" fill="none"><path fill="#000" fill-rule="evenodd" d="M3.6 7v20h20.8H3.6zm20.6 19.8H3.8V7.2h20.4zM17.6 2.6A5 5 0 0 1 19 6.1H9a5 5 0 0 1 8.6-3.5m-6.9-.4a5.2 5.2 0 0 0-1.9 4h10.4H8.8a5.2 5.2 0 0 1 2-4Zm-1-.4a6.2 6.2 0 0 0-1.9 4.3H3.6a1 1 0 0 0-1 1V27a1 1 0 0 0 1 1h20.8a1 1 0 0 0 1-1V7a1 1 0 0 0-1-1h-4.2A6.2 6.2 0 0 0 9.6 1.9Zm1.4-1a6 6 0 0 1 9 5.4h4.3a.9.9 0 0 1 .9.9V27 7a.9.9 0 0 0-1-.8h-4.2A6 6 0 0 0 11 1Z" clip-rule="evenodd"/><path fill="#e01a2b" d="M12.3 15.2H7.6l3.8 2.9-1.5 4.6 3.8-2.9 3.8 3-1.4-4.7 3.7-3h-4.6l-1.5-4.6z"/></svg>