<svg xmlns="http://www.w3.org/2000/svg" width="24" height="24" fill="none"><path fill="#000" fill-rule="evenodd" d="M3 2h3a1 1 0 0 1 0 2h-.6l4.3 4.3a1 1 0 0 1-1.4 1.4L4 5.4V6a1 1 0 0 1-2 0V3a1 1 0 0 1 1-1m15 0h3a1 1 0 0 1 1 1v3a1 1 0 1 1-2 0v-.6l-4.3 4.3a1 1 0 0 1-1.4-1.4L18.6 4H18a1 1 0 1 1 0-2m3 2h-1M9.7 14.3a1 1 0 0 1 0 1.4L5.4 20H6a1 1 0 1 1 0 2H3a1 1 0 0 1-1-1v-3a1 1 0 1 1 2 0v.6l4.3-4.3a1 1 0 0 1 1.4 0m4.6 0a1 1 0 0 1 1.4 0l4.3 4.3V18a1 1 0 1 1 2 0v3a1 1 0 0 1-1 1h-3a1 1 0 1 1 0-2h.6l-4.3-4.3a1 1 0 0 1 0-1.4" clip-rule="evenodd"/></svg>