<svg xmlns="http://www.w3.org/2000/svg" width="24" height="24" fill="none"><path fill="#fff" d="M8.3 21a6.6 6.6 0 0 1-2.2-.5 4.4 4.4 0 0 1-1.6-1 4.4 4.4 0 0 1-1-1.6 6.5 6.5 0 0 1-.4-2.2L3 12V8.3A6.6 6.6 0 0 1 3.6 6c.2-.6.6-1.1 1-1.6.5-.4 1-.8 1.6-1A6.5 6.5 0 0 1 8.3 3h7.4a6.6 6.6 0 0 1 2.2.5c.6.2 1.1.6 1.6 1 .4.5.8 1 1 1.6a6.5 6.5 0 0 1 .4 2.2L21 12v3.7a6.5 6.5 0 0 1-.5 2.2 4.4 4.4 0 0 1-1 1.6 5.4 5.4 0 0 1-3.8 1.4 60 60 0 0 1-7.4 0Zm0-16a4.6 4.6 0 0 0-1.5.3L6 6l-.6 1a4.6 4.6 0 0 0-.2 1.5V9a85 85 0 0 0 .2 8.2l.6.9 1 .6a4.7 4.7 0 0 0 1.5.2l3.6.1h3.6a4.6 4.6 0 0 0 1.6-.3 2.4 2.4 0 0 0 .9-.6l.6-1 .2-1.5V8.4a4.6 4.6 0 0 0-.2-1.6A2.4 2.4 0 0 0 18 6a2.5 2.5 0 0 0-1-.6 4.6 4.6 0 0 0-1.5-.2H15a83 83 0 0 0-6.6 0ZM8 12a4 4 0 1 1 8 0 4 4 0 0 1-8 0m2 0a2 2 0 1 0 4 0 2 2 0 0 0-4 0m5.5-4.5a1 1 0 1 1 2 0 1 1 0 0 1-2 0"/></svg>