<svg xmlns="http://www.w3.org/2000/svg" width="24" height="24" fill="none"><path fill="#fff" d="m10.9 14.8-.2.6-.6 2.1a9.4 9.4 0 0 1-1.5 3l-.3.4-.2.1v-.2L7.8 19a12.8 12.8 0 0 1 .5-3.7l1-3.9a.6.6 0 0 0 0-.3 3.8 3.8 0 0 1 0-3A1.8 1.8 0 0 1 11 7a1.3 1.3 0 0 1 1.4 1.2 4.4 4.4 0 0 1-.2 1.8l-.6 2.1a1.7 1.7 0 0 0 2.1 2.1 2.8 2.8 0 0 0 1.6-1.2 6.5 6.5 0 0 0 1-2.9 6.5 6.5 0 0 0 0-2.1 3.6 3.6 0 0 0-2.7-3 5.3 5.3 0 0 0-4.3.5A4.7 4.7 0 0 0 7 9.1a3.6 3.6 0 0 0 .3 2.1l.4.6a.6.6 0 0 1 .1.5l-.2.8a.4.4 0 0 1-.5.3 3 3 0 0 1-1.7-1.8A5.9 5.9 0 0 1 6.2 6a6.8 6.8 0 0 1 4.7-2.9 7.7 7.7 0 0 1 4.2.4A5.9 5.9 0 0 1 19 7.9a7 7 0 0 1 0 2.4 7.7 7.7 0 0 1-1.3 3.5A5 5 0 0 1 14 16a3.4 3.4 0 0 1-2.9-.8 2 2 0 0 1-.2-.2l-.2-.2"/></svg>