<svg xmlns="http://www.w3.org/2000/svg" width="24" height="24" fill="none"><path fill="#fff" d="M22.4 11.5a6 6 0 0 1-.6 1.1c-.5.8-1.2 1.7-2.3 2.7L12 22l-7.5-6.7a15 15 0 0 1-2.5-3l-.2-.3a7.4 7.4 0 0 1-.7-2A7.4 7.4 0 0 1 1 8.5v-.4c0-1.8.7-4.4 3.4-5.7 2-1 3.7-.4 5 .5a8.8 8.8 0 0 1 2.2 2.3l.4.7.4-.7A8.8 8.8 0 0 1 14.6 3c1.3-.9 3-1.5 5-.5A6 6 0 0 1 23 7.6a7.9 7.9 0 0 1 0 2.5l-.5 1.4ZM23 10l-.5 1.4z"/><path stroke="#000" d="M22.4 11.5a6 6 0 0 1-.6 1.1c-.5.8-1.2 1.7-2.3 2.7L12 22l-7.5-6.7a15 15 0 0 1-2.5-3l-.2-.3a7.4 7.4 0 0 1-.7-2A7.4 7.4 0 0 1 1 8.5v-.4c0-1.8.7-4.4 3.4-5.7 2-1 3.7-.4 5 .5a8.8 8.8 0 0 1 2.2 2.3l.4.7.4-.7A8.8 8.8 0 0 1 14.6 3c1.3-.9 3-1.5 5-.5A6 6 0 0 1 23 7.6a7.9 7.9 0 0 1 0 2.5l-.5 1.4Zm0 0L23 10l-.5 1.4Z"/></svg>