<svg xmlns="http://www.w3.org/2000/svg" width="24" height="24" fill="none"><path fill="#000" d="M18.4 21.8 15 19h-3a2 2 0 0 1-2-2v-2H9l-3.4 2.8a1 1 0 0 1-.6.2 1 1 0 0 1-1-1v-2H3a2 2 0 0 1-2-2V4a2 2 0 0 1 2-2h14a2 2 0 0 1 2 2v4h2a2 2 0 0 1 2 2v7a2 2 0 0 1-2 2h-1v2a1 1 0 0 1-1.6.8M11 17a1 1 0 0 0 1 1h3.4l.2.2L19 21v-3h2a1 1 0 0 0 1-1v-7a1 1 0 0 0-1-1h-2v4a2 2 0 0 1-2 2h-6zM2 4v9a1 1 0 0 0 1 1h2v3l3.4-2.8.2-.2H17a1 1 0 0 0 1-1V4a1 1 0 0 0-1-1H3a1 1 0 0 0-1 1"/><path fill="#e01a2b" d="M9.8 4.4 9 7.3H6L8.4 9l-1 2.9 2.4-1.8 2.4 1.8-1-3 2.4-1.7h-2.9l-.9-3Z"/></svg>