<svg xmlns="http://www.w3.org/2000/svg" width="24" height="24" fill="none"><path fill="#000" fill-rule="evenodd" d="M4 3a1 1 0 0 1 1-1h14a1 1 0 0 1 1 1v18a1 1 0 0 1-1 1H5a1 1 0 0 1-1-1zm2 1v16h12V4zm6 2a1 1 0 0 1 1 1v.6q.75.15 1.2.6A1 1 0 1 1 13 9.8a1.4 1.4 0 0 0-.9-.3c-.8 0-1.1.5-1.1.8 0 .2.1.4.4.5l.6.2c.6 0 1.1.1 1.6.4a2.6 2.6 0 0 1 1.4 2.3c0 1.3-.9 2.2-2 2.6v.7a1 1 0 1 1-2 0v-.6a3.3 3.3 0 0 1-1.2-.6 1 1 0 1 1 1.2-1.6q.3.3.9.3c.8 0 1.1-.5 1.1-.8a.6.6 0 0 0-.4-.5L12 13a3.1 3.1 0 0 1-1.6-.4A2.6 2.6 0 0 1 9 10.3C9 9 9.9 8 11 7.7V7a1 1 0 0 1 1-1" clip-rule="evenodd"/></svg>