<svg xmlns="http://www.w3.org/2000/svg" width="24" height="24" fill="none"><path fill="#000" fill-rule="evenodd" d="M20 6H4a2 2 0 0 0-2 2v13c0 1.1.9 2 2 2h16a2 2 0 0 0 2-2V8a2 2 0 0 0-2-2m0 1c.6 0 1 .4 1 1v13c0 .6-.4 1-1 1H4a1 1 0 0 1-1-1V8c0-.6.4-1 1-1z" clip-rule="evenodd"/><path fill="#000" fill-rule="evenodd" d="M15.4 1a2.6 2.6 0 0 0-1.9.8l-1 1.5-.8 2.9a16 16 0 0 0 3 .1c.5 0 1.1 0 1.7-.3l.5-.3A2.6 2.6 0 0 0 15.4 1m0 1A1.6 1.6 0 0 1 17 3.9 1.6 1.6 0 0 1 16 5c-.3.2-.8.3-1.4.3H13l.5-1.6c.2-.5.5-1 .8-1.2a1.6 1.6 0 0 1 1.1-.5" clip-rule="evenodd"/><path fill="#000" fill-rule="evenodd" d="M8.6 1a2.6 2.6 0 0 0-1 5l1.7.3a12.5 12.5 0 0 0 3-.1c-.2-1-.5-2-.9-2.9-.2-.4-.5-1-1-1.5A2.5 2.5 0 0 0 8.7 1zm.1 1a1.6 1.6 0 0 1 1.1.5c.3.3.6.7.8 1.2l.5 1.6a14 14 0 0 1-1.6 0c-.6 0-1-.1-1.4-.3h-.4c-.4-.3-.6-.6-.7-1a1.6 1.6 0 0 1 1.6-2" clip-rule="evenodd"/><path stroke="#000" d="M2 14.5h20M12 6v17z"/></svg>